<?xml version="1.0" encoding="utf-8"?>
<!-- Generator: Adobe Illustrator 24.3.0, SVG Export Plug-In . SVG Version: 6.00 Build 0)  -->
<svg version="1.1" id="Calque_1" xmlns="http://www.w3.org/2000/svg" xmlns:xlink="http://www.w3.org/1999/xlink" x="0px" y="0px"
	 viewBox="0 0 290 53" enable-background="new 0 0 290 53" xml:space="preserve">
<g>
	<path fill="#164A68" d="M25.78,52.77c-1.2,0-7.39-0.32-11.29-6.71c-0.04-0.05-4.92-7,0.39-12.95c0.33-0.35,1.16-1.56,2.66-1.82
		c0.1-0.02,0.37-0.07,0.86-0.15c0.57-0.09,1.27-0.52,1.9-0.77c-0.03-0.13-0.45-1.25,1.37-2.19c0.06-0.04,1.98-1.09,3.42-1.27
		c0.49-0.06,0.97,0.09,1.24,0.43l0.53,0.64l-2.93-7.54c-0.3-0.67-0.49-2.16,0.95-2.83c0.02-0.01,0.31-0.15,0.71-0.15
		c0.46,0,1.3,0.2,1.78,1.54l2.93,6.31l-1.5-7.75c-0.07-0.58-0.18-1.39,0.94-1.95c0.01-0.01,0.5-0.23,1.03-0.23
		c0.49,0,1.18,0.12,1.57,1.51l2.25,8.98l-0.45-6.95c0-0.57-0.26-1.9,1.21-2.14c0.28-0.04,1.28-0.25,1.66,1.57l2.64,11.1
		c0.08,0.18,2.23,5.61,1.4,11.11c-0.13,0.55-0.27,5.88-6.15,9.65c-0.17,0.11-4.26,2.51-8.98,2.54L25.78,52.77z M24.92,40.72
		c1.6-0.54,2.54-1.54,3.22-3.44c0,0,1.12-2.82-1.15-4.73c-0.05-0.05-1.2-0.98-2.91-0.76c-0.48,0.06-0.78,0.09-1.42,0.14
		c0,0-1.51,0.22-2.18-1.1c0.01,0.04,0,0.06-0.06,0.39c-0.09,0.52-0.14,0.84-0.14,1.01c-0.02,1.16,0.41,1.8-0.47,3.54
		c-0.06,0.12-1.85,3.36,1.65,4.89C22.16,40.94,23.69,41.14,24.92,40.72z"/>
	<path fill="#FFFFFF" d="M17.69,33.23c0.07,0.38-0.17,0.74-0.54,0.82c-0.38,0.08-0.74-0.17-0.82-0.54
		c-0.08-0.38,0.17-0.74,0.55-0.82C17.24,32.61,17.61,32.86,17.69,33.23z"/>
	<path fill="#E20613" d="M19.34,26.02c0,0-3.68-5.7,1.93-11.56C21.27,14.46,25.5,20.11,19.34,26.02z"/>
	<path fill="#EE7D00" d="M17.78,11.67c0,0-5.03-4.55-1.14-11.67C16.65,0,22.19,4.37,17.78,11.67z"/>
	<path fill="#5FC3E1" d="M15.35,23.39c0,0-4.79-4.79-0.54-11.7C14.8,11.69,20.12,16.33,15.35,23.39z"/>
	<path fill="#D0C900" d="M11.8,19.67c0,0-6.76-0.59-7.93-8.62C3.87,11.06,10.93,11.2,11.8,19.67z"/>
	<path fill="#A74D96" d="M11.71,22.27c0,0-4.96,4.62-11.71,0.12C0,22.39,4.83,17.24,11.71,22.27z"/>
	<path fill="#86BC29" d="M12.32,31.71c0,0-0.83,6.72-8.89,7.63C3.43,39.34,3.82,32.28,12.32,31.71z"/>
	<path fill="#008CA8" d="M16.64,25.8c0,0-3.46,5.83-11.2,3.41C5.43,29.21,8.63,22.91,16.64,25.8z"/>
</g>
<g>
	<path fill="#164A68" d="M290,48.24c0,0.56-0.44,1-0.99,1H45.52c-0.55,0-0.99-0.44-0.99-1v-23.6c0-0.55,0.44-0.99,0.99-0.99h243.48
		c0.55,0,0.99,0.44,0.99,0.99V48.24z"/>
	<rect x="55.13" y="41.22" fill="#5FC3E1" width="9.11" height="1.65"/>
	<rect x="82.29" y="41.22" fill="#FFCB00" width="7.86" height="1.65"/>
	<rect x="106.02" y="35.66" fill="#EE7D00" width="7.85" height="1.65"/>
	<path fill="#FFFFFF" d="M119.32,39.24c0-2.43-1.98-3.44-4.26-3.57c0,0-2.07-0.08-2.07-1.61c0-0.54,0.47-1.6,2.07-1.6
		c0.62,0,1.21,0.23,1.73,0.72c0.23,0.21,0.55,0.26,0.8,0.08l0.62-0.44c0.28-0.21,0.34-0.49,0.08-0.77
		c-0.67-0.75-1.76-1.39-3.23-1.39c-2.67,0-3.99,1.75-3.99,3.4c0,1.97,1.44,3.29,3.99,3.42c0,0,2.28,0,2.28,1.75
		c0,0.99-0.65,2.05-2.28,2.05c-1.22,0-2.1-0.83-2.64-1.58c-0.19-0.26-0.47-0.33-0.75-0.15l-0.59,0.41
		c-0.31,0.24-0.33,0.52-0.15,0.81c0.62,0.98,1.91,2.35,4.14,2.35C117.74,43.12,119.32,41.44,119.32,39.24"/>
	<path fill="#FFFFFF" d="M107.38,38.93v-7.44c0-0.37-0.21-0.57-0.57-0.57h-0.85c-0.36,0-0.56,0.21-0.56,0.57v7.44
		c0,1.16-0.83,2.35-2.28,2.35c-1.45,0-2.28-1.19-2.28-2.35v-7.44c0-0.37-0.21-0.57-0.57-0.57h-0.85c-0.36,0-0.57,0.21-0.57,0.57
		v7.44c0,2.22,1.7,4.19,4.26,4.19C105.68,43.12,107.38,41.15,107.38,38.93"/>
	<path fill="#FFFFFF" d="M83.49,42.29v-10.8c0-0.37-0.21-0.57-0.57-0.57h-1.01c-0.36,0-0.62,0.26-0.75,0.57l-1.71,4.16
		c-0.05,0.13-0.13,0.26-0.23,0.26c-0.1,0-0.18-0.13-0.23-0.26l-1.71-4.16c-0.12-0.31-0.38-0.57-0.75-0.57h-1
		c-0.36,0-0.57,0.21-0.57,0.57v10.8c0,0.36,0.21,0.57,0.57,0.57h0.72c0.37,0,0.57-0.21,0.57-0.57v-6.26c0-0.21,0.23-0.26,0.36,0
		l1.19,2.69c0.18,0.43,0.47,0.72,0.85,0.72c0.39,0,0.67-0.31,0.86-0.72l1.19-2.69c0.1-0.26,0.36-0.21,0.36,0v6.26
		c0,0.36,0.21,0.57,0.57,0.57h0.72C83.29,42.86,83.49,42.65,83.49,42.29"/>
	<path fill="#FFFFFF" d="M71.55,42.29v-10.8c0-0.37-0.21-0.57-0.57-0.57h-1.01c-0.36,0-0.62,0.26-0.74,0.57l-1.71,4.16
		c-0.05,0.13-0.13,0.26-0.23,0.26c-0.1,0-0.18-0.13-0.23-0.26l-1.71-4.16c-0.13-0.31-0.39-0.57-0.76-0.57h-1
		c-0.36,0-0.57,0.21-0.57,0.57v10.8c0,0.36,0.2,0.57,0.57,0.57h0.72c0.37,0,0.57-0.21,0.57-0.57v-6.26c0-0.21,0.24-0.26,0.36,0
		l1.2,2.69c0.18,0.43,0.46,0.72,0.85,0.72c0.39,0,0.67-0.31,0.85-0.72l1.19-2.69c0.1-0.26,0.36-0.21,0.36,0v6.26
		c0,0.36,0.21,0.57,0.57,0.57h0.72C71.34,42.86,71.55,42.65,71.55,42.29"/>
	<path fill="#FFFFFF" d="M55.35,30.66c-2.56,0-4.27,1.96-4.27,4.18v4.08c0,2.22,1.7,3.95,4.27,3.95V41.2
		c-1.45,0-2.28-1.11-2.28-2.27v-0.62c0-0.36,0.2-0.57,0.57-0.57h4.83c0.73,0,1.14-0.41,1.14-1.13v-1.76
		C59.61,32.62,57.9,30.66,55.35,30.66z M57.62,35.47c0,0.36-0.21,0.56-0.57,0.56h-3.41c-0.37,0-0.57-0.21-0.57-0.56v-0.62
		c0-1.16,0.82-2.35,2.28-2.35c1.44,0,2.28,1.19,2.28,2.35V35.47z"/>
	<path fill="#FFFFFF" d="M91.17,30.66c-1.14,0-2.1,0.28-2.92,0.75c-0.23,0.13-0.47,0.44-0.28,0.78l0.34,0.59
		c0.18,0.31,0.39,0.44,0.72,0.26c0.52-0.28,1.24-0.54,2.14-0.54c1.45,0,2.28,1.19,2.28,2.35c0,0.26-0.15,0.41-0.36,0.31
		c-0.55-0.26-1.24-0.41-1.92-0.41c-2.56,0-4.26,1.96-4.26,4.19c0,2.22,1.7,4.19,4.26,4.19c1.04,0,1.79-0.31,2.25-0.6
		c0.11-0.07,0.26-0.07,0.37,0.1c0.07,0.13,0.21,0.24,0.41,0.24h0.67c0.36,0,0.57-0.21,0.57-0.57v-7.45
		C95.44,32.62,93.73,30.66,91.17,30.66z M91.17,41.29c-1.45,0-2.27-1.19-2.27-2.36c0-1.16,0.83-2.35,2.27-2.35
		c1.45,0,2.28,1.19,2.28,2.35C93.45,40.09,92.62,41.29,91.17,41.29z"/>
	<rect x="234" y="41.22" fill="#5FC3E1" width="7.71" height="1.65"/>
	<rect x="269.87" y="41.22" fill="#E53212" width="7.71" height="1.65"/>
	<rect x="208.65" y="30.97" fill="#E5007E" width="6.95" height="1.66"/>
	<rect x="221.82" y="30.98" fill="#E7E000" width="6.95" height="1.65"/>
	<rect x="244.39" y="30.98" fill="#21A5A3" width="6.94" height="1.65"/>
	<rect x="257.99" y="41.31" fill="#EE7D00" width="8.26" height="1.66"/>
	<rect x="136.67" y="41.22" fill="#E5007E" width="7.85" height="1.65"/>
	<rect x="198.55" y="41.21" fill="#0080C8" width="5.5" height="1.66"/>
	<rect x="150.7" y="30.98" fill="#F19CAF" width="6.49" height="1.65"/>
	<rect x="159.62" y="36.04" fill="#008CA8" width="9.15" height="1.65"/>
	<rect x="168.29" y="36.04" fill="#B5CAD7" width="12.38" height="1.65"/>
	<path fill="#FFFFFF" d="M283.09,42.29v-0.57c0-0.36-0.2-0.57-0.56-0.57h-4.45c-0.37,0-0.57-0.21-0.57-0.57v-9.1
		c0-0.36-0.2-0.56-0.57-0.56h-0.85c-0.36,0-0.57,0.2-0.57,0.56v10.24c0,0.72,0.41,1.14,1.14,1.14h5.86
		C282.89,42.86,283.09,42.65,283.09,42.29"/>
	<path fill="#FFFFFF" d="M266.89,30.65c-1.14,0-2.1,0.29-2.93,0.75c-0.24,0.13-0.47,0.44-0.28,0.77l0.33,0.6
		c0.18,0.31,0.39,0.43,0.72,0.25c0.52-0.28,1.24-0.54,2.15-0.54c1.45,0,2.27,1.2,2.27,2.35c0,0.26-0.16,0.41-0.36,0.31
		c-0.55-0.25-1.24-0.41-1.91-0.41c-2.57,0-4.27,1.97-4.27,4.19c0,2.22,1.7,4.18,4.27,4.18c1.03,0,1.78-0.3,2.25-0.59
		c0.1-0.08,0.26-0.08,0.36,0.1c0.07,0.13,0.21,0.24,0.41,0.24h0.67c0.36,0,0.57-0.21,0.57-0.57v-7.45
		C271.16,32.62,269.44,30.65,266.89,30.65z"/>
	<path fill="#164A68" d="M266.89,41.28c-1.45,0-2.28-1.19-2.28-2.35c0-1.17,0.83-2.36,2.28-2.36c1.45,0,2.27,1.19,2.27,2.36
		C269.16,40.09,268.34,41.28,266.89,41.28z"/>
	<path fill="#FFFFFF" d="M259.21,42.29V31.48c0-0.36-0.21-0.56-0.57-0.56h-0.73c-0.36,0-0.56,0.2-0.56,0.56v7.06
		c0,0.21-0.21,0.26-0.37,0l-4.01-7.06c-0.18-0.31-0.39-0.56-0.75-0.56h-0.98c-0.37,0-0.57,0.2-0.57,0.56v10.81
		c0,0.36,0.2,0.57,0.57,0.57h0.72c0.36,0,0.56-0.21,0.56-0.57v-7.14c0-0.2,0.24-0.25,0.37,0l4,7.14c0.18,0.31,0.4,0.57,0.75,0.57
		h0.99C259.01,42.86,259.21,42.65,259.21,42.29"/>
	<path fill="#FFFFFF" d="M243,30.65c-2.56,0-4.26,1.97-4.26,4.19v4.09c0,2.22,1.7,4.18,4.26,4.18c2.56,0,4.26-1.96,4.26-4.18v-4.09
		C247.27,32.62,245.57,30.65,243,30.65z"/>
	<path fill="#164A68" d="M245.28,38.93c0,1.16-0.83,2.35-2.28,2.35c-1.44,0-2.27-1.19-2.27-2.35v-4.09c0-1.16,0.83-2.35,2.27-2.35
		c1.45,0,2.28,1.2,2.28,2.35V38.93z"/>
	<path fill="#FFFFFF" d="M235.33,42.29v-0.57c0-0.36-0.2-0.57-0.57-0.57h-2.14c-0.36,0-0.56-0.21-0.56-0.57v-7.4
		c0-0.36,0.2-0.57,0.56-0.57h1.3c0.36,0,0.57-0.21,0.57-0.57v-0.57c0-0.36-0.21-0.56-0.57-0.56h-5.68c-0.36,0-0.57,0.2-0.57,0.56
		v0.57c0,0.35,0.21,0.57,0.57,0.57h1.3c0.36,0,0.56,0.21,0.56,0.57v7.4c0,0.36-0.2,0.57-0.56,0.57h-2.15
		c-0.36,0-0.56,0.21-0.56,0.57v0.57c0,0.36,0.21,0.57,0.56,0.57h7.39C235.12,42.86,235.33,42.65,235.33,42.29"/>
	<path fill="#FFFFFF" d="M223.39,32.05v-0.57c0-0.36-0.21-0.56-0.57-0.56h-7.38c-0.36,0-0.57,0.2-0.57,0.56v0.57
		c0,0.35,0.21,0.57,0.57,0.57h2.14c0.36,0,0.56,0.21,0.56,0.57v9.1c0,0.36,0.21,0.57,0.57,0.57h0.82c0.37,0,0.57-0.21,0.57-0.57
		v-9.1c0-0.36,0.2-0.57,0.57-0.57h2.14C223.18,32.62,223.39,32.41,223.39,32.05"/>
	<path fill="#FFFFFF" d="M207.17,30.65c-2.55,0-4.26,1.97-4.26,4.19v7.45c0,0.36,0.21,0.57,0.57,0.57h0.85
		c0.36,0,0.57-0.21,0.57-0.57v-3.98c0-0.36,0.21-0.57,0.56-0.57h3.41c0.36,0,0.57,0.2,0.57,0.57v3.98c0,0.36,0.2,0.57,0.57,0.57
		h0.85c0.36,0,0.57-0.21,0.57-0.57v-7.45C211.44,32.62,209.74,30.65,207.17,30.65z"/>
	<path fill="#164A68" d="M209.46,35.46c0,0.37-0.21,0.58-0.57,0.58h-3.41c-0.36,0-0.56-0.21-0.56-0.58v-0.62
		c0-1.16,0.82-2.35,2.27-2.35c1.45,0,2.28,1.2,2.28,2.35V35.46z"/>
	<path fill="#FFFFFF" d="M199.5,42.29V31.48c0-0.36-0.21-0.56-0.57-0.56h-0.73c-0.36,0-0.57,0.2-0.57,0.56v7.06
		c0,0.21-0.2,0.26-0.36,0l-4.01-7.06c-0.18-0.31-0.39-0.56-0.75-0.56h-0.98c-0.36,0-0.57,0.2-0.57,0.56v10.81
		c0,0.36,0.21,0.57,0.57,0.57h0.72c0.36,0,0.57-0.21,0.57-0.57v-7.14c0-0.2,0.24-0.25,0.36,0l4.01,7.14
		c0.18,0.31,0.39,0.57,0.75,0.57h0.98C199.3,42.86,199.5,42.65,199.5,42.29"/>
	<path fill="#FFFFFF" d="M186.4,37.2c-0.21-0.19-0.21-0.38,0-0.55c0.33-0.26,1.16-0.88,1.16-2.32c0-2.3-1.83-3.68-4.26-3.68
		c-2.56,0-4.27,1.97-4.27,4.19v7.45c0,0.36,0.21,0.57,0.57,0.57h0.85c0.36,0,0.57-0.21,0.57-0.57v-3.98c0-0.36,0.2-0.57,0.57-0.57
		h1.71c1.44,0,2.27,1.19,2.27,2.35v2.2c0,0.36,0.21,0.57,0.57,0.57h0.85c0.36,0,0.57-0.21,0.57-0.57v-2.2
		C187.56,38.49,186.97,37.69,186.4,37.2z"/>
	<path fill="#164A68" d="M183.29,36.04h-1.71c-0.36,0-0.57-0.21-0.57-0.58v-0.62c0-1.16,0.83-2.35,2.28-2.35
		c1.21,0,2.27,0.6,2.27,1.84C185.57,35.78,183.97,36.04,183.29,36.04z"/>
	<path fill="#FFFFFF" d="M169.64,37.74h4.84c0.72,0,1.14-0.42,1.14-1.14v-1.76c0-2.22-1.7-4.19-4.27-4.19
		c-2.56,0-4.26,1.97-4.26,4.19v4.09c0,2.22,1.7,4.18,4.26,4.18c2.18,0,3.44-1.23,4.06-2.24c0.13-0.21,0.18-0.58-0.13-0.81
		l-0.56-0.41c-0.27-0.18-0.59-0.15-0.77,0.1c-0.44,0.59-1.24,1.52-2.59,1.52c-1.44,0-2.27-1.19-2.27-2.35v-0.62
		C169.08,37.95,169.28,37.74,169.64,37.74z"/>
	<path fill="#164A68" d="M169.08,34.84c0-1.16,0.83-2.35,2.27-2.35c1.45,0,2.29,1.2,2.29,2.35v0.62c0,0.37-0.21,0.58-0.58,0.58
		h-3.41c-0.36,0-0.56-0.21-0.56-0.58V34.84z"/>
	<path fill="#FFFFFF" d="M163.67,32.05v-0.57c0-0.36-0.21-0.56-0.57-0.56h-7.38c-0.37,0-0.57,0.2-0.57,0.56v0.57
		c0,0.35,0.2,0.57,0.57,0.57h2.14c0.36,0,0.57,0.21,0.57,0.57v9.1c0,0.36,0.21,0.57,0.57,0.57h0.83c0.36,0,0.57-0.21,0.57-0.57v-9.1
		c0-0.36,0.2-0.57,0.57-0.57h2.14C163.46,32.62,163.67,32.41,163.67,32.05"/>
	<path fill="#FFFFFF" d="M151.73,42.29V31.48c0-0.36-0.21-0.56-0.57-0.56h-0.72c-0.36,0-0.57,0.2-0.57,0.56v7.06
		c0,0.21-0.21,0.26-0.37,0l-4.01-7.06c-0.18-0.31-0.39-0.56-0.75-0.56h-0.98c-0.36,0-0.57,0.2-0.57,0.56v10.81
		c0,0.36,0.2,0.57,0.57,0.57h0.72c0.37,0,0.57-0.21,0.57-0.57v-7.14c0-0.2,0.23-0.25,0.36,0l4.01,7.14
		c0.17,0.31,0.38,0.57,0.75,0.57h0.98C151.52,42.86,151.73,42.65,151.73,42.29"/>
	<path fill="#FFFFFF" d="M139.79,42.29v-0.57c0-0.36-0.21-0.57-0.57-0.57h-2.14c-0.36,0-0.57-0.21-0.57-0.57v-7.4
		c0-0.36,0.21-0.57,0.57-0.57h1.3c0.36,0,0.56-0.21,0.56-0.57v-0.57c0-0.36-0.2-0.56-0.56-0.56h-5.69c-0.37,0-0.57,0.2-0.57,0.56
		v0.57c0,0.35,0.21,0.57,0.57,0.57h1.29c0.36,0,0.56,0.21,0.56,0.57v7.4c0,0.36-0.2,0.57-0.56,0.57h-2.14
		c-0.36,0-0.57,0.21-0.57,0.57v0.57c0,0.36,0.21,0.57,0.57,0.57h7.38C139.58,42.86,139.79,42.65,139.79,42.29"/>
</g>
</svg>
