<?xml version="1.0" standalone="no"?>
<!DOCTYPE svg PUBLIC "-//W3C//DTD SVG 20010904//EN"
 "http://www.w3.org/TR/2001/REC-SVG-20010904/DTD/svg10.dtd">
<svg version="1.0" xmlns="http://www.w3.org/2000/svg"
 width="742.000000pt" height="444.000000pt" viewBox="0 0 742.000000 444.000000"
 preserveAspectRatio="xMidYMid meet">

<g transform="translate(0.000000,444.000000) scale(0.100000,-0.100000)"
fill="#000000" stroke="none">
<path d="M1767 3408 c-46 -112 -71 -198 -60 -209 14 -14 53 -2 53 17 0 20 79
20 86 -1 7 -18 36 -28 58 -19 17 7 21 34 7 50 -5 5 -21 44 -37 87 -15 44 -34
85 -41 93 -25 24 -52 17 -66 -18z m48 -101 c0 -26 -20 -25 -23 2 -3 16 1 22
10 19 7 -3 13 -12 13 -21z"/>
<path d="M3403 3433 c-20 -8 -16 -53 5 -53 16 -1 16 -1 0 -14 -24 -18 -26
-163 -3 -172 30 -12 44 14 43 84 -1 37 -5 74 -9 83 -5 9 -4 20 2 26 8 8 7 17
0 32 -12 21 -17 23 -38 14z"/>
<path d="M4339 3424 c-10 -12 -10 -20 -1 -34 7 -12 8 -21 2 -25 -6 -3 -10 -42
-10 -85 0 -70 2 -79 20 -85 36 -11 41 3 39 113 -2 124 -16 157 -50 116z"/>
<path d="M4039 3413 c-1 -4 -1 -12 0 -17 1 -6 -3 -20 -10 -33 -10 -19 -10 -31
-1 -57 7 -18 12 -47 12 -64 0 -35 21 -52 54 -44 49 12 59 37 21 52 -31 12 -34
49 -5 57 24 6 29 53 6 53 -8 0 -21 12 -28 27 -12 26 -47 44 -49 26z"/>
<path d="M2142 3340 c-26 -25 -26 -25 -5 -61 16 -28 16 -29 -2 -44 -20 -15
-20 -15 -1 -30 16 -12 22 -12 46 0 37 19 44 41 23 76 -15 25 -16 31 -4 38 19
12 6 41 -17 41 -10 0 -28 -9 -40 -20z"/>
<path d="M2452 3344 c-25 -17 -28 -44 -10 -74 10 -15 10 -22 0 -32 -18 -18
-15 -38 7 -38 56 0 80 36 54 81 -15 25 -16 31 -4 38 16 10 8 41 -11 41 -8 0
-24 -7 -36 -16z"/>
<path d="M2742 3340 c-31 -29 -31 -103 0 -124 30 -22 91 -20 111 2 35 39 30
97 -12 129 -25 19 -75 15 -99 -7z m73 -60 c0 -29 -32 -41 -41 -16 -9 24 4 48
23 44 12 -2 18 -12 18 -28z"/>
<path d="M3102 3344 c-58 -41 -44 -124 25 -143 30 -8 41 -8 52 3 19 20 6 46
-23 46 -47 0 -41 55 7 62 14 2 22 10 22 23 0 26 -51 32 -83 9z"/>
<path d="M3671 3336 c-26 -28 -28 -85 -3 -113 20 -24 58 -38 66 -24 3 5 24 7
46 4 l40 -6 0 77 c0 42 -3 76 -7 77 -98 10 -121 7 -142 -15z m87 -58 c3 -24 0
-28 -23 -28 -27 0 -41 20 -31 46 10 27 51 13 54 -18z"/>
<path d="M4614 3335 c-73 -73 37 -185 112 -115 34 33 34 91 -2 119 -36 29 -79
27 -110 -4z m76 -40 c18 -21 5 -47 -22 -43 -26 3 -37 36 -16 49 18 12 24 11
38 -6z"/>
<path d="M4968 3353 c-25 -6 -27 -148 -2 -157 26 -10 43 12 46 62 2 34 7 47
18 47 11 0 16 -14 18 -52 3 -52 16 -68 47 -57 11 5 15 22 15 69 0 84 -27 113
-80 85 -13 -7 -21 -7 -25 0 -6 10 -9 11 -37 3z"/>
<path d="M1959 3076 c-4 -4 -64 -13 -135 -20 -71 -8 -151 -22 -179 -33 -43
-16 -50 -23 -57 -53 -13 -60 -18 -233 -8 -272 19 -67 32 -192 36 -328 2 -74 9
-173 15 -220 15 -110 15 -163 0 -345 -7 -82 -14 -206 -15 -275 l-1 -125 45
-23 c29 -15 54 -21 70 -17 19 5 303 17 380 16 8 0 123 -5 255 -12 185 -9 280
-9 415 -1 208 14 1659 7 1785 -8 117 -15 152 -15 230 -2 39 6 121 14 183 17
110 7 173 22 188 46 4 7 8 82 10 168 1 86 7 167 12 181 12 30 11 335 -1 346
-4 5 -16 3 -25 -2 -19 -12 -20 -33 -24 -454 -3 -243 3 -231 -128 -242 -134
-11 -303 -14 -323 -5 -33 15 -1568 27 -2057 16 -102 -2 -279 -1 -395 3 -115 4
-250 2 -300 -3 -49 -5 -126 -6 -169 -2 l-80 8 -3 75 c-4 104 -4 104 2 210 3
52 2 163 -3 245 -4 83 -6 155 -4 162 2 6 13 13 25 15 20 3 22 10 25 73 2 65 1
68 -12 45 -21 -37 -25 -17 -30 155 -2 83 -9 206 -15 274 -11 131 -3 234 21
257 27 26 171 48 358 53 293 9 2246 -1 2334 -11 60 -7 85 -6 103 3 25 14 30
41 10 57 -8 7 -331 12 -992 16 -539 3 -1106 8 -1260 12 -154 3 -283 3 -286 0z"/>
<path d="M4713 3068 c-40 -10 -44 -37 -10 -69 18 -17 31 -20 72 -16 63 6 80 0
64 -19 -13 -16 -12 -19 32 -109 17 -34 35 -54 56 -64 17 -8 37 -28 47 -47 16
-36 40 -43 76 -24 14 8 21 6 28 -5 6 -12 22 -15 67 -13 l59 3 8 39 c5 22 4 71
-3 115 -6 42 -13 96 -16 121 -6 51 -17 68 -53 82 -32 13 -385 18 -427 6z m174
-94 c-3 -3 -12 -4 -19 -1 -8 3 -5 6 6 6 11 1 17 -2 13 -5z m137 -6 c-15 -7
-28 -7 -40 1 -16 9 -12 10 21 10 35 0 37 -2 19 -11z"/>
<path d="M1993 2964 c-37 -16 -71 -18 -129 -9 -38 7 -43 5 -63 -23 -11 -17
-21 -41 -21 -54 0 -14 -6 -47 -14 -74 -24 -83 -40 -214 -40 -327 -1 -104 0
-109 24 -127 24 -18 25 -24 25 -120 l0 -101 680 -5 c1634 -10 2311 -7 2423 12
37 6 41 23 11 50 -12 10 -30 36 -40 57 -22 42 -39 46 -79 17 -46 -33 -119 -60
-161 -60 -22 0 -48 -4 -57 -9 -9 -5 -38 -11 -63 -15 -41 -6 -50 -4 -78 19 -17
15 -31 33 -31 41 0 22 116 100 199 135 41 17 101 34 133 37 67 6 83 22 73 76
-9 46 15 98 58 125 61 37 58 57 -15 85 -28 10 -58 31 -75 52 -15 20 -43 52
-62 72 -18 20 -41 47 -49 61 -25 37 -78 55 -192 63 -130 10 -98 10 -335 -2
-243 -12 -1774 -4 -1860 10 -216 35 -215 35 -262 14z m1981 -229 l1 -50 -57
-3 -58 -3 0 56 0 56 57 -3 57 -3 0 -50z m161 0 l0 -50 -55 0 -55 0 -3 53 -3
53 58 -3 57 -3 1 -50z m-1907 -7 l3 -48 -90 0 c-49 0 -92 -4 -95 -8 -3 -5 -2
-18 1 -30 5 -20 12 -22 89 -22 l84 0 0 -43 c0 -24 -5 -48 -12 -55 -7 -7 -42
-12 -85 -12 -81 0 -95 -10 -75 -56 11 -23 16 -24 102 -24 l90 0 0 -43 c0 -24
-5 -48 -12 -55 -17 -17 -302 -17 -315 1 -6 9 -10 422 -4 445 1 1 72 1 159 0
l157 -3 3 -47z m169 -88 c7 -25 14 -25 55 0 18 11 43 20 55 20 27 0 73 -20 73
-32 0 -14 28 -9 62 12 52 32 119 22 146 -20 6 -11 12 -71 13 -150 1 -145 0
-150 -58 -150 -62 0 -63 2 -63 116 0 88 -3 106 -16 111 -36 14 -49 -10 -52
-98 -3 -128 -3 -128 -60 -127 -27 0 -54 3 -60 7 -7 4 -12 48 -14 111 -3 92 -5
105 -21 108 -10 2 -27 -4 -38 -14 -17 -16 -20 -30 -18 -105 1 -48 -2 -92 -5
-98 -4 -6 -25 -11 -46 -11 -72 0 -70 -5 -70 166 0 153 0 154 23 154 12 0 29 5
37 10 25 16 52 11 57 -10z m580 0 c7 -25 10 -25 51 0 18 11 43 20 57 20 28 0
75 -20 75 -32 0 -4 9 -8 20 -8 11 0 20 4 20 8 0 11 61 32 93 32 15 0 40 -12
57 -27 l31 -28 0 -132 c1 -72 -2 -137 -6 -142 -7 -12 -73 -15 -99 -5 -13 5
-16 24 -16 99 0 105 -5 125 -30 125 -38 0 -51 -33 -49 -123 1 -46 -1 -89 -5
-96 -4 -6 -25 -11 -46 -11 -70 0 -70 1 -70 115 0 85 -3 104 -16 109 -24 9 -31
8 -49 -10 -13 -13 -16 -35 -14 -104 1 -48 -2 -93 -5 -99 -10 -15 -91 -14 -104
2 -6 7 -12 74 -13 157 l-2 145 32 6 c18 4 35 9 38 13 14 14 45 5 50 -14z m655
4 c28 -15 32 -15 40 0 11 19 30 20 72 5 l31 -11 -2 -146 c-1 -79 -4 -151 -7
-158 -8 -20 -85 -18 -108 2 -15 14 -20 15 -33 4 -23 -19 -96 -16 -128 4 -38
26 -67 77 -73 133 -13 121 108 218 208 167z m758 -19 c26 -42 20 -65 -15 -65
-33 0 -33 -26 1 -61 64 -67 5 -169 -98 -169 -27 0 -37 6 -51 29 -22 38 -22 61
2 61 27 0 51 10 51 22 0 6 -14 26 -31 45 -24 28 -29 42 -27 71 3 32 10 42 52
70 63 42 88 42 116 -3z m-437 -68 c-6 -91 5 -127 37 -127 39 0 50 26 50 121
l0 89 65 0 65 0 0 -155 0 -154 -32 -5 c-59 -8 -78 -5 -91 15 -14 19 -15 19
-60 -1 -109 -49 -180 36 -163 193 13 110 10 107 76 107 l58 0 -5 -83z"/>
<path d="M3562 2534 c-45 -31 -17 -104 40 -104 52 0 74 86 28 110 -26 14 -42
12 -68 -6z"/>
<path d="M2265 1912 c-26 -28 -19 -56 9 -33 11 9 20 10 35 2 26 -14 36 1 19
28 -20 32 -36 33 -63 3z"/>
<path d="M1898 1913 c-84 -53 -51 -193 45 -193 43 0 81 28 72 52 -6 14 -15 16
-50 11 -41 -5 -44 -4 -50 20 -4 14 -1 35 5 47 10 18 17 21 51 15 31 -5 40 -3
45 10 16 40 -71 68 -118 38z"/>
<path d="M2051 1916 c-8 -9 -11 -46 -9 -103 3 -86 3 -88 28 -88 22 0 25 5 28
38 3 29 7 37 23 37 16 0 19 -7 19 -41 0 -36 2 -40 23 -37 18 2 23 10 25 47 2
25 1 55 -3 69 -5 22 -10 24 -46 19 -39 -5 -39 -5 -39 28 0 21 -6 35 -16 39
-21 8 -20 8 -33 -8z"/>
<path d="M2682 1921 c-9 -5 -18 -134 -13 -188 1 -8 22 -11 64 -10 l62 2 3 94
c3 98 -3 113 -39 104 -17 -5 -19 -15 -19 -94 0 -53 -4 -89 -10 -89 -6 0 -10
36 -10 89 0 89 -9 110 -38 92z"/>
<path d="M3932 1922 c-9 -6 -12 -34 -10 -103 3 -93 3 -94 28 -94 22 0 25 5 28
43 2 23 6 42 10 41 4 0 21 -19 37 -42 20 -28 40 -43 57 -45 l27 -3 3 92 c3
102 -7 133 -39 113 -12 -8 -18 -23 -18 -47 0 -50 -9 -53 -36 -15 -50 70 -60
77 -87 60z"/>
<path d="M4870 1910 c-17 -13 -22 -22 -15 -29 13 -13 75 16 75 35 0 20 -31 17
-60 -6z"/>
<path d="M2400 1897 c0 -38 -16 -45 -89 -39 -63 4 -69 3 -85 -19 -43 -62 -4
-115 87 -117 l58 0 -1 41 c-3 59 -2 61 15 47 8 -7 15 -24 15 -39 0 -38 14 -53
45 -49 37 4 57 35 33 49 -22 12 -23 35 -3 43 19 7 20 46 1 46 -8 0 -18 10 -22
23 -13 41 -54 52 -54 14z m-96 -93 c20 -8 11 -24 -15 -24 -19 0 -25 11 -12 23
8 8 8 8 27 1z"/>
<path d="M3448 1850 c-1 -38 -2 -82 -2 -97 -1 -23 4 -29 27 -31 26 -3 27 -2
27 42 0 50 16 71 25 31 3 -14 7 -36 10 -50 4 -18 12 -25 29 -25 54 0 74 29 39
55 -17 13 -17 14 1 34 19 21 18 25 -12 76 -24 38 -62 47 -62 13 0 -13 -4 -30
-10 -38 -8 -13 -10 -12 -15 1 -3 9 -5 20 -4 25 4 24 -3 34 -26 34 -24 0 -25
-2 -27 -70z"/>
<path d="M4322 1898 c4 -31 53 -34 53 -3 0 15 -8 21 -28 23 -25 3 -28 0 -25
-20z"/>
<path d="M4585 1909 c-4 -6 -4 -13 -1 -16 3 -3 -2 -19 -10 -35 -14 -26 -17
-28 -27 -14 -9 13 -25 16 -70 13 -31 -2 -61 -8 -66 -13 -4 -5 -5 -34 -2 -64 5
-46 9 -55 26 -55 16 0 21 8 23 38 2 20 7 37 13 37 5 0 12 0 17 0 4 1 9 -16 12
-37 4 -33 9 -38 30 -38 23 0 25 4 28 48 3 41 5 47 18 37 8 -7 14 -27 14 -46 0
-40 11 -48 56 -40 26 5 34 12 34 27 0 12 -8 23 -20 26 -11 3 -20 9 -20 14 0 4
9 13 20 19 11 6 20 19 20 29 0 10 -9 21 -20 24 -12 3 -20 14 -20 25 0 27 -42
44 -55 21z"/>
<path d="M2527 1842 c-52 -58 -15 -126 64 -120 32 2 45 8 47 21 3 13 -4 17
-32 17 -51 0 -54 18 -4 22 50 4 61 25 29 57 -26 26 -82 28 -104 3z"/>
<path d="M2847 1849 c-44 -26 -39 -94 7 -119 32 -17 90 -9 94 13 3 14 -4 17
-32 17 -20 0 -36 5 -36 10 0 6 15 10 33 10 31 0 57 14 57 32 0 4 -10 16 -22
28 -24 22 -72 26 -101 9z"/>
<path d="M2991 1847 c-6 -8 -9 -35 -6 -63 2 -27 4 -53 5 -57 0 -5 10 -7 23 -5
18 2 23 10 25 42 2 28 9 40 23 43 12 3 19 14 19 29 0 21 -5 24 -39 24 -21 0
-44 -6 -50 -13z"/>
<path d="M3106 1838 c-21 -30 -20 -60 3 -90 17 -21 28 -25 80 -25 l61 -1 0 63
c0 72 -4 75 -80 75 -39 0 -52 -4 -64 -22z m82 -46 c2 -7 -6 -12 -17 -12 -21 0
-27 11 -14 24 9 9 26 2 31 -12z"/>
<path d="M3275 1826 c-13 -67 24 -124 65 -98 15 9 24 9 39 1 37 -24 52 -5 49
63 -3 60 -4 63 -28 63 -21 0 -26 -6 -30 -35 -7 -51 -38 -54 -42 -3 -2 30 -7
39 -25 41 -18 3 -23 -3 -28 -32z"/>
<path d="M4158 1843 c-28 -31 -31 -66 -9 -95 18 -23 28 -26 81 -26 l61 0 -3
67 -3 66 -56 3 c-43 2 -59 -1 -71 -15z m66 -39 c25 -9 19 -24 -9 -24 -24 0
-32 10 -18 23 8 8 8 8 27 1z"/>
<path d="M4322 1793 c3 -65 4 -68 28 -68 24 0 25 2 25 65 0 64 -1 65 -28 68
l-28 3 3 -68z"/>
<path d="M4706 1844 c-10 -9 -15 -23 -12 -31 3 -8 6 -32 6 -54 0 -35 3 -39 25
-39 23 0 25 4 25 40 0 34 4 42 26 50 16 7 24 16 22 28 -5 24 -70 29 -92 6z"/>
<path d="M4820 1833 c-41 -53 1 -115 75 -111 29 2 41 8 43 21 3 14 -4 17 -32
17 -48 0 -46 18 1 22 72 6 46 78 -28 78 -29 0 -42 -6 -59 -27z"/>
<path d="M3720 1820 c-15 -29 -4 -40 39 -40 41 0 67 20 57 45 -9 24 -83 20
-96 -5z"/>
<path d="M1676 1275 c-21 -22 -30 -55 -17 -68 6 -6 11 -28 11 -49 0 -31 4 -38
20 -38 17 0 20 7 20 40 0 27 5 43 15 46 20 8 19 30 -2 38 -12 5 -14 9 -5 18 7
7 12 16 12 20 0 14 -38 9 -54 -7z"/>
<path d="M2320 1264 c0 -21 -4 -25 -19 -21 -33 8 -61 -20 -61 -62 0 -50 14
-61 77 -61 l53 0 0 85 c0 84 0 85 -25 85 -20 0 -25 -5 -25 -26z m0 -84 c0 -13
-7 -20 -20 -20 -13 0 -20 7 -20 20 0 13 7 20 20 20 13 0 20 -7 20 -20z"/>
<path d="M2672 1257 c-8 -22 -9 -43 -3 -65 5 -18 8 -32 5 -32 -3 0 0 -9 6 -20
12 -22 54 -27 66 -8 4 6 0 16 -9 23 -21 15 -22 44 -2 51 8 4 15 12 15 19 0 7
-7 15 -15 19 -8 3 -15 12 -15 20 0 11 -19 26 -34 26 -1 0 -7 -15 -14 -33z"/>
<path d="M3531 1268 c-39 -100 -51 -132 -51 -139 0 -12 47 -11 55 1 3 6 19 10
36 10 16 0 29 -4 29 -10 0 -5 11 -10 25 -10 32 0 31 10 -4 95 -25 58 -34 71
-55 73 -19 3 -28 -3 -35 -20z m44 -78 c-5 -8 -11 -8 -17 -2 -6 6 -7 16 -3 22
5 8 11 8 17 2 6 -6 7 -16 3 -22z"/>
<path d="M3680 1205 l0 -85 54 0 c72 0 86 14 82 85 -4 72 -16 85 -82 85 l-54
0 0 -85z m80 35 c0 -5 -7 -10 -15 -10 -8 0 -15 5 -15 10 0 6 7 10 15 10 8 0
15 -4 15 -10z m5 -60 c3 -5 4 -14 0 -20 -8 -13 -35 -1 -35 16 0 16 26 19 35 4z"/>
<path d="M3840 1205 l0 -85 59 0 c35 0 63 5 69 13 13 15 12 127 -1 145 -6 7
-33 12 -68 12 l-59 0 0 -85z m80 35 c0 -5 -7 -10 -15 -10 -8 0 -15 5 -15 10 0
6 7 10 15 10 8 0 15 -4 15 -10z m10 -63 c0 -19 -10 -27 -26 -20 -21 8 -17 33
6 33 11 0 20 -6 20 -13z"/>
<path d="M4010 1205 l0 -85 60 0 c47 0 60 3 60 15 0 8 -9 15 -19 15 -30 0 -51
11 -51 26 0 9 11 14 29 14 16 0 31 6 34 14 8 19 -1 26 -35 26 -15 0 -28 4 -28
9 0 11 25 21 51 21 10 0 19 7 19 15 0 12 -13 15 -60 15 l-60 0 0 -85z"/>
<path d="M4227 1283 c-13 -12 -8 -161 6 -166 18 -6 37 3 37 19 0 8 10 14 24
14 38 0 76 36 76 74 0 46 -26 66 -87 66 -27 0 -53 -3 -56 -7z m77 -29 c34 -13
14 -64 -25 -64 -10 0 -12 53 -2 63 8 8 8 8 27 1z"/>
<path d="M4400 1288 c0 -2 -2 -39 -3 -83 l-2 -80 28 -3 28 -3 -3 83 c-3 77 -5
83 -25 86 -13 2 -23 2 -23 0z"/>
<path d="M4474 1277 c-3 -8 -4 -45 -2 -83 l3 -69 63 -3 c51 -2 62 0 62 13 0
10 -9 15 -27 15 -59 0 -69 34 -13 42 35 4 32 32 -3 36 -28 3 -33 26 -6 28 8 1
20 2 27 3 6 0 12 8 12 16 0 20 -108 22 -116 2z"/>
<path d="M4627 1283 c-4 -3 -7 -42 -7 -85 0 -77 0 -78 25 -78 20 0 25 5 25 25
0 31 22 33 35 3 6 -13 21 -25 34 -26 21 -3 23 -1 16 20 -8 27 -8 41 1 86 9 47
-8 62 -71 62 -28 0 -55 -3 -58 -7z m83 -49 c0 -8 -9 -14 -20 -14 -19 0 -27 19
-14 33 10 9 34 -4 34 -19z"/>
<path d="M4787 1283 c-2 -5 -4 -43 -5 -85 -1 -77 -1 -78 23 -78 20 0 25 5 25
24 0 37 17 40 35 6 10 -19 23 -30 36 -30 19 0 20 4 15 34 -4 19 -1 45 5 60 10
20 9 30 -5 51 -14 22 -24 25 -71 25 -29 0 -56 -3 -58 -7z m81 -46 c2 -12 -3
-17 -17 -17 -12 0 -21 6 -21 13 0 31 32 34 38 4z"/>
<path d="M4950 1205 l0 -86 62 3 c38 2 63 8 66 16 2 7 -6 12 -21 12 -60 0 -81
36 -24 42 20 2 32 8 32 18 0 10 -12 16 -32 18 -51 5 -35 32 18 32 10 0 19 7
19 15 0 12 -13 15 -60 15 l-60 0 0 -85z"/>
<path d="M1850 1237 c-61 -31 -43 -117 24 -117 41 0 66 26 66 68 0 25 -6 35
-30 47 -35 18 -29 18 -60 2z m48 -55 c3 -17 -2 -22 -17 -22 -14 0 -21 6 -21
18 0 38 33 41 38 4z"/>
<path d="M2095 1245 c-5 -2 -22 -6 -37 -9 -26 -6 -28 -10 -28 -61 0 -48 3 -55
19 -55 16 0 20 8 23 37 2 27 8 39 21 41 14 3 17 -4 17 -38 0 -37 2 -41 23 -38
19 3 22 9 21 52 0 35 -5 52 -19 62 -19 14 -22 15 -40 9z"/>
<path d="M2485 1238 c-27 -15 -35 -28 -35 -59 0 -38 29 -59 83 -59 l47 0 0 55
c0 36 -4 57 -12 59 -40 13 -65 14 -83 4z m45 -59 c0 -20 -24 -26 -35 -9 -8 13
14 42 26 34 5 -3 9 -14 9 -25z"/>
<path d="M2855 1225 c-42 -41 -28 -88 31 -104 41 -11 64 -5 64 16 0 11 -7 14
-21 10 -24 -6 -49 1 -49 14 0 5 18 9 40 9 31 0 40 4 40 18 0 23 -10 37 -37 51
-31 16 -41 14 -68 -14z m55 -25 c0 -5 -7 -10 -15 -10 -8 0 -15 5 -15 10 0 6 7
10 15 10 8 0 15 -4 15 -10z"/>
<path d="M3143 1243 c-8 -3 -13 -22 -13 -45 0 -32 -3 -39 -17 -36 -13 2 -19
14 -21 41 -3 29 -7 37 -23 37 -23 0 -28 -35 -14 -98 5 -21 10 -23 62 -20 l57
3 2 57 c2 56 -6 70 -33 61z"/>
<path d="M3273 1233 c-8 -3 -13 -25 -13 -59 0 -51 1 -54 25 -54 22 0 25 4 25
40 0 29 5 42 20 50 11 6 18 15 15 21 -6 9 -51 11 -72 2z"/>
</g>
</svg>
